<?xml version="1.0" standalone="no"?>
<!DOCTYPE svg PUBLIC "-//W3C//DTD SVG 20010904//EN"
 "http://www.w3.org/TR/2001/REC-SVG-20010904/DTD/svg10.dtd">
<svg version="1.0" xmlns="http://www.w3.org/2000/svg"
 width="121.000000pt" height="121.000000pt" viewBox="0 0 121.000000 121.000000"
 preserveAspectRatio="xMidYMid meet">
<metadata>
Created by potrace 1.14, written by Peter Selinger 2001-2017
</metadata>
<g transform="translate(0.000000,121.000000) scale(0.100000,-0.100000)"
fill="#000000" stroke="none">
<path d="M546 1053 c-10 -21 -41 -89 -68 -152 -27 -63 -55 -129 -63 -145 -49
-109 -71 -160 -102 -231 -19 -44 -45 -102 -58 -130 -39 -82 -85 -186 -85 -191
0 -2 42 -4 94 -4 l94 0 38 90 38 90 180 -2 180 -3 29 -70 c16 -38 32 -77 37
-85 5 -11 30 -16 103 -18 l96 -3 -15 38 c-19 49 -25 63 -68 156 -20 43 -36 80
-36 83 0 3 -11 29 -24 57 -13 29 -42 97 -65 152 -23 55 -51 118 -61 140 -9 22
-39 91 -65 153 l-48 112 -57 0 c-55 0 -57 -1 -74 -37z m120 -50 c8 -21 24 -57
35 -80 10 -24 19 -46 19 -50 0 -4 9 -25 19 -47 10 -23 26 -57 34 -76 8 -19 45
-107 82 -195 37 -88 83 -195 101 -238 l34 -78 -42 3 -42 3 -40 93 -39 92 -214
-2 -215 -3 -38 -90 -38 -90 -41 -3 c-23 -2 -41 -1 -41 1 0 5 39 96 70 162 36
78 68 152 125 285 31 74 61 140 65 145 4 6 14 28 23 50 8 22 27 66 41 98 23
51 29 57 56 57 26 0 33 -6 46 -37z"/>
<path d="M600 904 c-6 -14 -10 -27 -10 -30 0 -2 -10 -26 -21 -52 -31 -68 -51
-115 -96 -222 l-40 -95 94 -3 c52 -1 134 -1 183 0 l89 3 -19 45 c-10 25 -42
101 -70 170 -28 69 -55 134 -60 145 -5 11 -12 30 -15 43 -8 29 -23 28 -35 -4z
m50 -144 c12 -30 29 -73 37 -95 9 -22 22 -54 29 -72 8 -17 14 -34 14 -37 0 -3
-52 -6 -115 -6 l-115 0 21 53 c11 28 26 66 33 82 7 17 24 56 37 88 12 31 26
54 30 50 4 -5 17 -33 29 -63z"/>
</g>
</svg>
